<svg version="1.1" id="Layer_1" xmlns="http://www.w3.org/2000/svg" xmlns:xlink="http://www.w3.org/1999/xlink" x="0px" y="16px" width="100px" height="67px" viewBox="0 16 100 67" enable-background="0 16 100 67" xml:space="preserve"><desc>Copyright Opto 22</desc> <desc>Created with Snap</desc><defs/><g id="shape" xmlns="http://www.w3.org/2000/svg">
	<path fill="#3366ff" d="M95.3,38.1c-2.4-2.5-5.5-4.1-8.9-4.6C85.3,23.7,77,16,66.9,16c-5.6,0-10.7,2.3-14.4,6.3
		c-1.9-0.5-3.9-0.8-5.9-0.8c-9.1,0-17,5.5-20.4,13.4c0.3,0,0.6,0,0.9,0c1.7,0,3.5,0,5.1,0.1c3-4.9,8.3-8.1,14.4-8.1c2,0,4,0.4,5.8,1
		l1.9,0.7l1.2-1.6c2.7-3.6,6.8-5.7,11.3-5.7c7.8,0,14.1,6.3,14.1,14.1c0,0.1,0,0.1,0,0.2L81,38.7l2.7,0c6,0.1,10.9,5,10.9,11
		c0,6.1-4.9,11-11,11H57v5.4h26.6c9,0,16.4-7.4,16.4-16.4C100,45.3,98.3,41.2,95.3,38.1z"></path>
	<ellipse fill="#3366ff" cx="27.1" cy="44.2" rx="27.1" ry="7.2"></ellipse>
	<path fill="#3366ff" d="M27.1,78.8c-15,0-27.1-3.2-27.1-7.2v4.6c0,4,12.1,7.2,27.1,7.2s27.1-3.2,27.1-7.2v-4.6
		C54.1,75.6,42,78.8,27.1,78.8z"></path>
	<path fill="#3366ff" d="M27.1,57.3c-15,0-27.1-3.2-27.1-7.2V55c0,4,12.1,7.2,27.1,7.2S54.1,59,54.1,55v-4.9
		C54.1,54.1,42,57.3,27.1,57.3z"></path>
	<path fill="#3366ff" d="M27.1,68.1c-15,0-27.1-3.2-27.1-7.2v4.9c0,4,12.1,7.2,27.1,7.2s27.1-3.2,27.1-7.2v-4.9
		C54.1,64.8,42,68.1,27.1,68.1z"></path>
</g></svg>